<svg width="20" height="12" viewBox="0 0 20 12" fill="none" xmlns="http://www.w3.org/2000/svg">
<path d="M18.811 0.971358C18.5423 0.702747 18.1779 0.551849 17.798 0.551849C17.418 0.551849 17.0537 0.702747 16.785 0.971358L9.69254 8.06378L2.60012 0.971358C2.32989 0.710359 1.96795 0.565939 1.59227 0.569204C1.2166 0.572468 0.857228 0.723156 0.591573 0.988811C0.325918 1.25447 0.175232 1.61383 0.171968 1.98951C0.168703 2.36519 0.313123 2.72712 0.574121 2.99735L8.67954 11.1028C8.94823 11.3714 9.31261 11.5223 9.69254 11.5223C10.0725 11.5223 10.4368 11.3714 10.7055 11.1028L18.811 2.99735C19.0796 2.72866 19.2305 2.36429 19.2305 1.98436C19.2305 1.60443 19.0796 1.24005 18.811 0.971358V0.971358Z" fill="black"/>
</svg>
